<svg width="112" height="31" fill="none" xmlns="http://www.w3.org/2000/svg"><path d="M18.38 24.6V30H.82V.86h6.76V24.6h10.8Zm31.353-9.18c0 2.107-.367 4.067-1.1 5.88a14.154 14.154 0 0 1-3.06 4.74c-1.32 1.333-2.914 2.38-4.78 3.14-1.854.76-3.914 1.14-6.18 1.14-2.267 0-4.334-.38-6.2-1.14-1.867-.76-3.467-1.807-4.8-3.14a14.413 14.413 0 0 1-3.08-4.74c-.72-1.813-1.08-3.773-1.08-5.88 0-2.107.36-4.067 1.08-5.88.733-1.813 1.76-3.387 3.08-4.72 1.333-1.333 2.933-2.38 4.8-3.14 1.866-.76 3.933-1.14 6.2-1.14 2.266 0 4.326.387 6.18 1.16 1.866.76 3.46 1.807 4.78 3.14 1.32 1.333 2.34 2.907 3.06 4.72.733 1.813 1.1 3.767 1.1 5.86Zm-6.92 0c0-1.44-.187-2.733-.56-3.88-.374-1.16-.914-2.14-1.62-2.94a6.854 6.854 0 0 0-2.56-1.84c-1.014-.427-2.167-.64-3.46-.64-1.307 0-2.474.213-3.5.64a7.035 7.035 0 0 0-2.58 1.84c-.694.8-1.227 1.78-1.6 2.94-.374 1.147-.56 2.44-.56 3.88 0 1.453.186 2.76.56 3.92.373 1.147.906 2.12 1.6 2.92a7.035 7.035 0 0 0 2.58 1.84c1.026.413 2.193.62 3.5.62 1.293 0 2.446-.207 3.46-.62a6.854 6.854 0 0 0 2.56-1.84c.706-.8 1.246-1.773 1.62-2.92.373-1.16.56-2.467.56-3.92Zm24.898-.52h10.36v12.3c-1.494 1.093-3.087 1.887-4.78 2.38-1.68.493-3.44.74-5.28.74-2.4 0-4.587-.373-6.56-1.12-1.96-.76-3.64-1.8-5.04-3.12a13.818 13.818 0 0 1-3.24-4.72c-.76-1.827-1.14-3.807-1.14-5.94 0-2.173.36-4.167 1.08-5.98.72-1.827 1.746-3.4 3.08-4.72 1.346-1.32 2.966-2.347 4.86-3.08 1.906-.733 4.033-1.1 6.38-1.1 1.213 0 2.353.1 3.42.3 1.066.2 2.046.473 2.94.82.906.347 1.733.76 2.48 1.24.746.48 1.413 1 2 1.56l-1.96 2.98c-.307.467-.707.753-1.2.86-.48.107-1-.013-1.56-.36-.534-.32-1.04-.593-1.52-.82a8.335 8.335 0 0 0-1.44-.58 9.502 9.502 0 0 0-1.56-.32c-.547-.067-1.16-.1-1.84-.1-1.267 0-2.407.227-3.42.68a7.322 7.322 0 0 0-2.6 1.88c-.707.813-1.254 1.793-1.64 2.94-.387 1.133-.58 2.4-.58 3.8 0 1.547.213 2.92.64 4.12.426 1.2 1.026 2.213 1.8 3.04a7.965 7.965 0 0 0 2.8 1.9c1.093.427 2.3.64 3.62.64.813 0 1.546-.08 2.2-.24.666-.16 1.313-.373 1.94-.64v-4.42h-2.88c-.427 0-.76-.113-1-.34a1.132 1.132 0 0 1-.36-.86V14.9Zm43.506.52c0 2.107-.367 4.067-1.1 5.88a14.154 14.154 0 0 1-3.06 4.74c-1.32 1.333-2.913 2.38-4.78 3.14-1.853.76-3.913 1.14-6.18 1.14s-4.334-.38-6.2-1.14c-1.867-.76-3.467-1.807-4.8-3.14a14.413 14.413 0 0 1-3.08-4.74c-.72-1.813-1.08-3.773-1.08-5.88 0-2.107.36-4.067 1.08-5.88.733-1.813 1.76-3.387 3.08-4.72 1.333-1.333 2.933-2.38 4.8-3.14C91.763.92 93.83.54 96.097.54c2.267 0 4.327.387 6.18 1.16 1.867.76 3.46 1.807 4.78 3.14 1.32 1.333 2.34 2.907 3.06 4.72.733 1.813 1.1 3.767 1.1 5.86Zm-6.92 0c0-1.44-.187-2.733-.56-3.88-.373-1.16-.913-2.14-1.62-2.94a6.853 6.853 0 0 0-2.56-1.84c-1.014-.427-2.167-.64-3.46-.64-1.307 0-2.473.213-3.5.64a7.033 7.033 0 0 0-2.58 1.84c-.694.8-1.227 1.78-1.6 2.94-.374 1.147-.56 2.44-.56 3.88 0 1.453.186 2.76.56 3.92.373 1.147.906 2.12 1.6 2.92a7.034 7.034 0 0 0 2.58 1.84c1.027.413 2.193.62 3.5.62 1.293 0 2.447-.207 3.46-.62a6.854 6.854 0 0 0 2.56-1.84c.707-.8 1.247-1.773 1.62-2.92.373-1.16.56-2.467.56-3.92Z" fill="#000746"/></svg>