<svg width="313" height="351" fill="none" xmlns="http://www.w3.org/2000/svg"><path d="M413.608-236.011C543.897-201.1 621.216-67.18 586.305 63.109c-34.911 130.288-168.831 207.607-299.12 172.696-130.288-34.911-207.607-168.83-172.696-299.12 34.91-130.288 168.831-207.607 299.119-172.696ZM292.622 215.517c119.083 31.908 241.486-38.761 273.395-157.845 31.908-119.083-38.761-241.487-157.845-273.395-119.084-31.908-241.487 38.761-273.395 157.845-31.909 119.084 38.761 241.487 157.845 273.395Z" fill="#FAFAFA"/><path d="M114.489-63.314a244.232 244.232 0 0 1 429.653-85.487 244.229 244.229 0 0 1-193.694 392.928l-.004-21.004A223.219 223.219 0 0 0 550.618 98.596 223.226 223.226 0 1 0 134.777-57.878l-20.288-5.436Z" fill="#FAFAFA"/><path d="M424.445-276.453C577.068-235.557 667.642-78.679 626.747 73.944c-40.896 152.624-197.774 243.198-350.398 202.302C123.726 235.351 33.152 78.473 74.048-74.151c40.895-152.623 197.773-243.197 350.397-202.302ZM282.718 252.48c139.498 37.379 282.884-45.406 320.262-184.904 37.379-139.498-45.405-282.884-184.903-320.263-139.498-37.378-282.885 45.406-320.263 184.904C60.435 71.715 143.22 215.102 282.718 252.48Z" fill="#FAFAFA"/><path d="M74.048-74.15a286.1 286.1 0 0 1 524.117-69.002 286.1 286.1 0 0 1-20.791 317.214 286.102 286.102 0 0 1-301.025 102.184l6.369-23.766A261.491 261.491 0 0 0 611.331 17a261.501 261.501 0 0 0-145.278-251.63A261.493 261.493 0 0 0 97.813-67.783L74.049-74.15Z" fill="#FAFAFA"/><path d="M402.772-195.57C510.725-166.644 574.789-55.681 545.863 52.272c-28.926 107.953-139.888 172.017-247.842 143.091C190.068 166.437 126.004 55.475 154.93-52.478c28.926-107.954 139.888-172.018 247.842-143.092Zm-99.356 370.8c96.834 25.947 196.368-31.519 222.314-128.353 25.947-96.834-31.519-196.367-128.353-222.314-96.834-25.947-196.367 31.519-222.314 128.353-25.947 96.834 31.519 196.368 128.353 222.314Z" fill="#FAFAFA"/><path d="M154.93-52.478a202.366 202.366 0 0 1 118.026-134.583 202.356 202.356 0 0 1 178.622 11.707 202.361 202.361 0 0 1 41.91 318.342L478.75 128.25a181.532 181.532 0 0 0 43.532-70.006 181.527 181.527 0 0 0-20.958-159.194 181.527 181.527 0 0 0-139.056-80.283 181.519 181.519 0 0 0-187.205 134.15l-20.133-5.395Z" fill="#FAFAFA"/><path d="M391.935-155.128c85.618 22.941 136.428 110.946 113.487 196.564-22.942 85.618-110.947 136.428-196.565 113.486C223.239 131.981 172.43 43.976 195.371-41.642c22.941-85.618 110.946-136.428 196.564-113.486Zm-77.678 289.897c74.488 19.959 151.052-24.245 171.011-98.733 19.959-74.488-24.245-151.052-98.733-171.011-74.488-19.959-151.052 24.245-171.011 98.733-19.959 74.488 24.246 151.052 98.733 171.011Z" fill="#FAFAFA"/><path d="M195.371-41.642a160.486 160.486 0 0 1 74.778-97.453 160.503 160.503 0 0 1 121.786-16.033A160.49 160.49 0 0 1 509.517-21.052a160.494 160.494 0 0 1-4.096 62.488l-20.153-5.4a139.626 139.626 0 0 0-153.097-174.574A139.627 139.627 0 0 0 215.524-36.242l-20.153-5.4Z" fill="#FAFAFA"/><path d="M381.101-114.687C444.384-97.73 481.938-32.683 464.982 30.6c-16.957 63.283-82.004 100.838-145.287 83.881-63.283-16.957-100.838-82.004-83.881-145.287 16.957-63.283 82.004-100.837 145.287-83.881ZM325.068 94.429c52.209 13.989 105.872-16.994 119.862-69.202 13.989-52.209-16.994-105.873-69.202-119.862-52.209-13.989-105.873 16.994-119.862 69.202C241.877 26.776 272.86 80.44 325.068 94.43Z" fill="#FAFAFA"/><path d="M235.814-30.806a118.624 118.624 0 0 1 186.814-63.398 118.628 118.628 0 0 1 42.36 63.422l-20.053 5.37a97.862 97.862 0 0 0-94.527-72.557 97.867 97.867 0 0 0-94.542 72.536l-20.052-5.373Z" fill="#FAFAFA"/><path d="M370.264-74.246c40.948 10.972 65.248 53.061 54.276 94.01-10.972 40.947-53.061 65.247-94.009 54.275-40.948-10.972-65.248-53.06-54.276-94.009 10.972-40.947 53.061-65.248 94.009-54.276ZM335.895 54.021c29.892 8.01 60.617-9.73 68.627-39.622 8.009-29.892-9.73-60.617-39.622-68.626-29.892-8.01-60.617 9.73-68.626 39.621-8.01 29.892 9.729 60.617 39.621 68.627Z" fill="#FAFAFA"/><path d="M276.255-19.97a76.755 76.755 0 0 1 44.776-51.052 76.757 76.757 0 0 1 67.76 4.452l-10.367 17.946a56.028 56.028 0 0 0-49.464-3.25 56.035 56.035 0 0 0-32.686 37.268l-20.019-5.364Z" fill="#FAFAFA"/></svg>